<svg width="42" height="41" viewBox="0 0 42 41" fill="none" xmlns="http://www.w3.org/2000/svg">
<path d="M20.0035 19.7997C20.3768 19.8131 20.7501 19.7864 21.1235 19.7197C21.4968 19.6531 21.8301 19.5397 22.1235 19.3797C22.4168 19.2064 22.6501 18.9731 22.8235 18.6797C23.0101 18.3864 23.1035 18.0264 23.1035 17.5997C23.1035 16.9997 22.8968 16.5197 22.4835 16.1597C22.0835 15.7997 21.5635 15.6197 20.9235 15.6197C20.5235 15.6197 20.1768 15.6997 19.8835 15.8597C19.5901 16.0197 19.3435 16.2397 19.1435 16.5197C18.9568 16.7864 18.8168 17.0931 18.7235 17.4397C18.6301 17.7731 18.5901 18.1197 18.6035 18.4797H16.3235C16.3501 17.7997 16.4768 17.1731 16.7035 16.5997C16.9301 16.0131 17.2368 15.5064 17.6235 15.0797C18.0235 14.6531 18.5035 14.3197 19.0635 14.0797C19.6235 13.8397 20.2568 13.7197 20.9635 13.7197C21.5101 13.7197 22.0435 13.7997 22.5635 13.9597C23.0968 14.1197 23.5701 14.3531 23.9835 14.6597C24.4101 14.9664 24.7501 15.3597 25.0035 15.8397C25.2568 16.3064 25.3835 16.8464 25.3835 17.4597C25.3835 18.1664 25.2235 18.7864 24.9035 19.3197C24.5835 19.8397 24.0835 20.2197 23.4035 20.4597V20.4997C24.2035 20.6597 24.8235 21.0597 25.2635 21.6997C25.7168 22.3264 25.9435 23.0931 25.9435 23.9997C25.9435 24.6664 25.8101 25.2664 25.5435 25.7997C25.2768 26.3197 24.9168 26.7664 24.4635 27.1397C24.0101 27.4997 23.4835 27.7797 22.8835 27.9797C22.2835 28.1797 21.6501 28.2797 20.9835 28.2797C20.1701 28.2797 19.4568 28.1664 18.8435 27.9397C18.2435 27.6997 17.7368 27.3664 17.3235 26.9397C16.9235 26.5131 16.6168 25.9997 16.4035 25.3997C16.1901 24.7997 16.0768 24.1331 16.0635 23.3997H18.3435C18.3168 24.2531 18.5235 24.9664 18.9635 25.5397C19.4168 26.0997 20.0901 26.3797 20.9835 26.3797C21.7435 26.3797 22.3768 26.1664 22.8835 25.7397C23.4035 25.2997 23.6635 24.6797 23.6635 23.8797C23.6635 23.3331 23.5568 22.8997 23.3435 22.5797C23.1301 22.2597 22.8501 22.0197 22.5035 21.8597C22.1568 21.6864 21.7635 21.5797 21.3235 21.5397C20.8968 21.4997 20.4568 21.4864 20.0035 21.4997V19.7997Z" fill="#111111"/>
<path fill-rule="evenodd" clip-rule="evenodd" d="M21 39C31.2173 39 39.5 30.7173 39.5 20.5C39.5 10.2827 31.2173 2 21 2C10.7827 2 2.5 10.2827 2.5 20.5C2.5 30.7173 10.7827 39 21 39ZM21 41C32.3218 41 41.5 31.8218 41.5 20.5C41.5 9.17816 32.3218 0 21 0C9.67816 0 0.5 9.17816 0.5 20.5C0.5 31.8218 9.67816 41 21 41Z" fill="black"/>
</svg>
