<svg width="42" height="41" viewBox="0 0 42 41" fill="none" xmlns="http://www.w3.org/2000/svg">
<path d="M16.5034 16.32C16.9834 16.32 17.4501 16.28 17.9034 16.2C18.3568 16.12 18.7634 15.9867 19.1234 15.8C19.4968 15.6133 19.8101 15.3733 20.0634 15.08C20.3301 14.7867 20.5034 14.4267 20.5834 14H22.4434V28H19.9434V18.12H16.5034V16.32Z" fill="#111111"/>
<path fill-rule="evenodd" clip-rule="evenodd" d="M21 39C31.2173 39 39.5 30.7173 39.5 20.5C39.5 10.2827 31.2173 2 21 2C10.7827 2 2.5 10.2827 2.5 20.5C2.5 30.7173 10.7827 39 21 39ZM21 41C32.3218 41 41.5 31.8218 41.5 20.5C41.5 9.17816 32.3218 0 21 0C9.67816 0 0.5 9.17816 0.5 20.5C0.5 31.8218 9.67816 41 21 41Z" fill="black"/>
</svg>
