<svg width="42" height="41" viewBox="0 0 42 41" fill="none" xmlns="http://www.w3.org/2000/svg">
<path d="M25.7834 28.0002H16.2234C16.2367 26.8402 16.5167 25.8269 17.0634 24.9602C17.6101 24.0935 18.3567 23.3402 19.3034 22.7002C19.7567 22.3669 20.2301 22.0469 20.7234 21.7402C21.2167 21.4202 21.6701 21.0802 22.0834 20.7202C22.4967 20.3602 22.8367 19.9735 23.1034 19.5602C23.3701 19.1335 23.5101 18.6469 23.5234 18.1002C23.5234 17.8469 23.4901 17.5802 23.4234 17.3002C23.3701 17.0069 23.2567 16.7402 23.0834 16.5002C22.9101 16.2469 22.6701 16.0402 22.3634 15.8802C22.0567 15.7069 21.6567 15.6202 21.1634 15.6202C20.7101 15.6202 20.3301 15.7135 20.0234 15.9002C19.7301 16.0735 19.4901 16.3202 19.3034 16.6402C19.1301 16.9469 18.9967 17.3135 18.9034 17.7402C18.8234 18.1669 18.7767 18.6269 18.7634 19.1202H16.4834C16.4834 18.3469 16.5834 17.6335 16.7834 16.9802C16.9967 16.3135 17.3101 15.7402 17.7234 15.2602C18.1367 14.7802 18.6367 14.4069 19.2234 14.1402C19.8234 13.8602 20.5167 13.7202 21.3034 13.7202C22.1567 13.7202 22.8701 13.8602 23.4434 14.1402C24.0167 14.4202 24.4767 14.7735 24.8234 15.2002C25.1834 15.6269 25.4367 16.0935 25.5834 16.6002C25.7301 17.0935 25.8034 17.5669 25.8034 18.0202C25.8034 18.5802 25.7167 19.0869 25.5434 19.5402C25.3701 19.9935 25.1367 20.4135 24.8434 20.8002C24.5501 21.1735 24.2167 21.5202 23.8434 21.8402C23.4701 22.1602 23.0834 22.4602 22.6834 22.7402C22.2834 23.0202 21.8834 23.2869 21.4834 23.5402C21.0834 23.7935 20.7101 24.0469 20.3634 24.3002C20.0301 24.5535 19.7367 24.8202 19.4834 25.1002C19.2301 25.3669 19.0567 25.6535 18.9634 25.9602H25.7834V28.0002Z" fill="#111111"/>
<path fill-rule="evenodd" clip-rule="evenodd" d="M21 39C31.2173 39 39.5 30.7173 39.5 20.5C39.5 10.2827 31.2173 2 21 2C10.7827 2 2.5 10.2827 2.5 20.5C2.5 30.7173 10.7827 39 21 39ZM21 41C32.3218 41 41.5 31.8218 41.5 20.5C41.5 9.17816 32.3218 0 21 0C9.67816 0 0.5 9.17816 0.5 20.5C0.5 31.8218 9.67816 41 21 41Z" fill="black"/>
</svg>
