<svg width="37" height="25" viewBox="0 0 37 25" fill="none" xmlns="http://www.w3.org/2000/svg">
<g clip-path="url(#clip0_23_2460)">
<path d="M33.9167 0H3.08333C1.3875 0 0 1.3875 0 3.08333V21.5833C0 23.2792 1.3875 24.6667 3.08333 24.6667H33.9167C35.6125 24.6667 37 23.2792 37 21.5833V3.08333C37 1.3875 35.6125 0 33.9167 0Z" fill="#010101"/>
<path d="M9.48135 15.8019C7.47718 15.8019 5.85843 14.2602 5.85843 12.2561C5.85843 10.2519 7.47718 8.71024 9.48135 8.71024C10.7147 8.71024 11.7938 9.24982 12.4876 10.329C12.7188 10.6373 12.873 11.0227 12.9501 11.4852H11.1001C10.8688 10.7915 10.1751 10.329 9.48135 10.329C8.40218 10.329 7.63135 11.254 7.63135 12.3332C7.63135 13.4123 8.3251 14.3373 9.48135 14.3373C10.2522 14.3373 10.7918 13.8748 11.1001 13.1811H12.9501C12.5647 14.7227 11.1001 15.8019 9.48135 15.8019Z" fill="white"/>
<path d="M17.1126 15.6478V14.6457H15.1084L14.4918 15.6478H12.4105L17.1126 8.78741H18.8084V15.6478H17.1126ZM17.1126 11.3312L15.9563 13.2582H17.1126V11.3312Z" fill="white"/>
<path d="M22.2001 15.8019C20.8126 15.8019 19.7334 15.1082 19.7334 13.6436V13.4123H21.5063C21.5063 13.8748 21.7376 14.3373 22.2001 14.3373C22.5855 14.3373 22.8938 14.029 22.8938 13.6436C22.8938 13.1811 22.5084 13.0269 22.2001 12.8727C21.9688 12.7957 21.8147 12.7186 21.5834 12.6415C20.6584 12.2561 19.8876 11.7165 19.8876 10.7144C19.8876 9.40399 21.1209 8.71024 22.2772 8.71024C22.9709 8.71024 23.6647 8.94149 24.1272 9.48107C24.5126 9.94357 24.5897 10.329 24.5897 10.8686H22.8938C22.8168 10.4832 22.7397 10.1748 22.2772 10.1748C21.9688 10.1748 21.6605 10.4061 21.6605 10.7144C21.6605 10.7915 21.6605 10.9457 21.7376 11.0227C21.8918 11.3311 22.8168 11.6394 23.1251 11.7936C24.0501 12.179 24.7438 12.7186 24.7438 13.7207C24.5897 15.1082 23.5105 15.8019 22.2001 15.8019Z" fill="white"/>
<path d="M29.3687 15.6478V12.9499H27.1333V15.6478H25.4375V8.78741H27.2104V11.3312H29.4458V8.78741H31.2188V15.6478H29.3687Z" fill="white"/>
</g>
<defs>
<clipPath id="clip0_23_2460">
<rect width="37" height="24.6667" fill="white"/>
</clipPath>
</defs>
</svg>
