<svg width="32" height="32" viewBox="0 0 32 32" fill="none" xmlns="http://www.w3.org/2000/svg">
<rect width="32" height="32" fill="white"/>
<path d="M27.2592 7.91945C27.2592 7.58866 27.0672 7.29061 26.7733 7.16488L15.7051 2.4316C15.5143 2.35003 15.3004 2.35003 15.1095 2.4316L4.04132 7.16488C3.74741 7.29056 3.55547 7.58866 3.55547 7.91945V22.8955C3.55547 23.2263 3.74736 23.5243 4.04132 23.65L15.1095 28.3833C15.2983 28.464 15.5105 28.4658 15.7041 28.3833C15.7136 28.38 15.2945 28.5589 26.7733 23.65C27.0673 23.5244 27.2592 23.2263 27.2592 22.8955V7.91945ZM15.4073 11.8394L11.3291 10.0954L20.1426 6.09309L24.4935 7.95376L15.4073 11.8394ZM5.12273 9.20507L8.64129 10.7098V14.9549C8.64129 15.4054 8.99216 15.7707 9.42492 15.7707C9.85768 15.7707 10.2086 15.4054 10.2086 14.9549V11.38L14.6237 13.2681V26.4117L5.12273 22.3487V9.20507ZM15.4073 4.06805L18.1239 5.22977L9.31041 9.23209L6.3211 7.95371L15.4073 4.06805ZM16.191 13.2681L25.6919 9.20507V22.3487L16.191 26.4117V13.2681Z" fill="black"/>
</svg>
