<svg width="19" height="19" viewBox="0 0 19 19" fill="none" xmlns="http://www.w3.org/2000/svg">
<g clip-path="url(#clip0_23_1937)">
<path d="M9.50207 4.54332C6.94982 4.54332 4.88357 6.61182 4.88357 9.16182C4.88357 11.7141 6.95207 13.7803 9.50207 13.7803C12.0543 13.7803 14.1206 11.7118 14.1206 9.16182C14.1206 6.60957 12.0521 4.54332 9.50207 4.54332ZM9.50207 12.1596C7.84532 12.1596 6.50432 10.8178 6.50432 9.16182C6.50432 7.50582 7.84607 6.16407 9.50207 6.16407C11.1581 6.16407 12.4998 7.50582 12.4998 9.16182C12.5006 10.8178 11.1588 12.1596 9.50207 12.1596Z" fill="black"/>
<path d="M13.2119 0.222907C11.5559 0.145657 7.45418 0.149407 5.79668 0.222907C4.34018 0.291157 3.05543 0.642906 2.01968 1.67866C0.288676 3.40966 0.509926 5.74216 0.509926 9.16291C0.509926 12.6639 0.314926 14.9424 2.01968 16.6472C3.75743 18.3842 6.12368 18.1569 9.50393 18.1569C12.9719 18.1569 14.1689 18.1592 15.3952 17.6844C17.0624 17.0372 18.3209 15.5469 18.4439 12.8702C18.5219 11.2134 18.5174 7.11241 18.4439 5.45491C18.2954 2.29516 16.5997 0.378907 13.2119 0.222907ZM15.8332 15.5019C14.6984 16.6367 13.1242 16.5354 9.48218 16.5354C5.73218 16.5354 4.22843 16.5909 3.13118 15.4907C1.86743 14.2329 2.09618 12.2132 2.09618 9.15091C2.09618 5.00716 1.67093 2.02291 5.82968 1.80991C6.78518 1.77616 7.06643 1.76491 9.47168 1.76491L9.50543 1.78741C13.5022 1.78741 16.6379 1.36891 16.8262 5.52691C16.8689 6.47566 16.8787 6.76066 16.8787 9.16216C16.8779 12.8687 16.9484 14.3814 15.8332 15.5019Z" fill="black"/>
<path d="M14.3066 5.44205C14.9026 5.44205 15.3858 4.95885 15.3858 4.3628C15.3858 3.76675 14.9026 3.28355 14.3066 3.28355C13.7105 3.28355 13.2273 3.76675 13.2273 4.3628C13.2273 4.95885 13.7105 5.44205 14.3066 5.44205Z" fill="black"/>
</g>
<defs>
<clipPath id="clip0_23_1937">
<rect width="18" height="18.0003" fill="white" transform="translate(0.500755 0.166367)"/>
</clipPath>
</defs>
</svg>
