<svg width="220" height="35" viewBox="0 0 220 35" fill="none" xmlns="http://www.w3.org/2000/svg">
<path fill-rule="evenodd" clip-rule="evenodd" d="M47.0883 17.2191C47.0883 14.1972 45.8081 11.32 43.5664 9.27708C44.8761 8.5014 46.4218 8.09301 48.0577 8.09301C53.0565 8.09301 57.1369 12.0834 57.2576 17.0339H57.2253V17.2598C57.2253 22.2947 53.0952 26.3904 48.0185 26.3904C46.4464 26.3904 44.9025 25.991 43.5336 25.2325C45.7968 23.1584 47.0883 20.2554 47.0883 17.2191ZM45.4683 17.2923C45.4683 20.0124 44.2716 22.5562 42.1783 24.3014C40.0841 22.5192 38.8869 19.9636 38.8869 17.2598C38.8869 14.546 40.0827 11.9994 42.1751 10.2439C44.2706 12.0288 45.4683 14.5871 45.4683 17.2923ZM37.2706 17.3257C37.2341 20.3503 38.5038 23.2339 40.7642 25.2835C39.4231 26.0552 37.8728 26.4613 36.2592 26.4613C31.2048 26.4613 27.093 22.3484 27.093 17.2923C27.093 12.261 31.2226 8.16755 36.2984 8.16755C37.8847 8.16755 39.4294 8.56646 40.7852 9.32361C38.5479 11.3995 37.2706 14.2993 37.2706 17.3257ZM58.8371 16.9932C58.7154 11.1573 53.8911 6.44678 47.9784 6.44678C45.9234 6.44678 43.9071 7.05033 42.1368 8.19375C40.3328 7.05033 38.2919 6.44678 36.226 6.44678C30.2372 6.44678 25.3641 11.2974 25.3641 17.2598C25.3641 23.1987 30.2372 28.0298 36.226 28.0298C38.306 28.0298 40.3337 27.4272 42.1004 26.2856C43.872 27.4272 45.9015 28.0298 47.9784 28.0298C53.9895 28.0298 58.8803 23.1801 58.8803 17.2191L58.8393 16.9932H58.8371Z" fill="black"/>
<path fill-rule="evenodd" clip-rule="evenodd" d="M81.416 6.44666C78.4977 6.44666 75.845 8.0956 74.528 10.6883C73.2096 8.0956 70.5428 6.44666 67.6031 6.44666C63.3487 6.44666 59.8869 9.91033 59.8869 14.1678V27.5057H61.5387V14.1312C61.5387 10.8017 64.2593 8.09289 67.6031 8.09289C70.9669 8.09289 73.7035 10.8017 73.7035 14.1312V27.5057H75.3549V14.1312C75.3549 10.8017 78.0741 8.09289 81.416 8.09289C84.7789 8.09289 87.5146 10.8017 87.5146 14.1312V27.5057H89.1682V14.1312C89.1682 9.89407 85.6905 6.44666 81.416 6.44666Z" fill="black"/>
<mask id="mask0_23_1787" style="mask-type:alpha" maskUnits="userSpaceOnUse" x="0" y="0" width="220" height="35">
<path d="M0 35H220V0H0V35Z" fill="white"/>
</mask>
<g mask="url(#mask0_23_1787)">
<path fill-rule="evenodd" clip-rule="evenodd" d="M90.7295 27.5057H92.3841V6.97253H90.7295V27.5057Z" fill="black"/>
<path fill-rule="evenodd" clip-rule="evenodd" d="M20.032 17.2597C20.032 22.2946 15.901 26.3903 10.8234 26.3903C5.76946 26.3903 1.65806 22.2761 1.65806 17.219C1.65806 12.1868 5.78723 8.09291 10.863 8.09291C15.9188 8.09291 20.032 12.2053 20.032 17.2597ZM10.8234 6.44668C7.06005 6.44668 3.62288 8.36803 1.65806 11.5155V0H-0.000160217V17.2597C-0.000160217 23.1986 4.87338 28.0297 10.863 28.0297C16.8304 28.0297 21.6848 23.18 21.6848 17.219C21.6848 11.2792 16.8126 6.44668 10.8234 6.44668Z" fill="black"/>
<path fill-rule="evenodd" clip-rule="evenodd" d="M205.727 18.0615H207.381V6.97205H205.727V18.0615Z" fill="black"/>
<path fill-rule="evenodd" clip-rule="evenodd" d="M177.207 17.2395C177.198 22.2853 173.068 26.3905 168.001 26.3905C162.943 26.3905 158.828 22.2758 158.828 17.2192C158.828 12.1865 162.959 8.09264 168.035 8.09264C173.083 8.09264 177.198 12.1965 177.207 17.2395ZM168.001 6.44641C162.032 6.44641 157.177 11.2975 157.177 17.2594C157.177 23.1983 162.048 28.0299 168.035 28.0299C171.8 28.0299 175.24 26.1077 177.207 22.9598V27.5059H178.862V17.2192C178.862 11.2789 173.99 6.44641 168.001 6.44641Z" fill="black"/>
<path fill-rule="evenodd" clip-rule="evenodd" d="M184.741 16.4159C185.148 11.7293 189.123 8.09301 193.894 8.09301C198.644 8.09301 202.601 11.7293 203.007 16.4159H184.741ZM193.85 6.44678C187.886 6.44678 183.034 11.2974 183.034 17.2598C183.034 23.1987 187.905 28.0298 193.894 28.0298C198.331 28.0298 202.28 25.3698 203.954 21.2534L204.08 20.943H202.286L202.225 21.0736C200.712 24.3032 197.442 26.3904 193.894 26.3904C189.125 26.3904 185.151 22.751 184.741 18.0616H204.716V17.2191C204.716 11.2788 199.841 6.44678 193.85 6.44678Z" fill="black"/>
<path fill-rule="evenodd" clip-rule="evenodd" d="M180.37 27.5057H182.023V0H180.37V27.5057Z" fill="black"/>
<path fill-rule="evenodd" clip-rule="evenodd" d="M214.22 15.6965C211.912 15.0252 210.002 14.2721 210.002 11.8556C210.002 9.78068 211.696 8.09288 213.778 8.09288C215.843 8.09288 217.523 9.77119 217.523 11.8339V12.0598H219.173V11.8339C219.173 8.86359 216.753 6.44666 213.778 6.44666C210.805 6.44666 208.386 8.85501 208.386 11.8123C208.352 14.5084 210.147 16.3258 213.725 17.2149C216.814 17.949 218.381 19.5063 218.381 21.8392C218.344 24.3487 216.262 26.3902 213.742 26.3902C211.227 26.3902 209.182 24.3347 209.182 21.8071V21.5812H207.527V21.8071C207.527 25.2387 210.331 28.0297 213.778 28.0297C217.209 28.0297 220 25.2387 220 21.8071C220 18.8047 218.055 16.7487 214.22 15.6965Z" fill="black"/>
<path fill-rule="evenodd" clip-rule="evenodd" d="M90.7295 4.74077H92.3841V0.000854492H90.7295V4.74077Z" fill="black"/>
<path fill-rule="evenodd" clip-rule="evenodd" d="M102.356 6.44666C97.6898 6.44666 93.8932 10.2099 93.8932 14.8355V27.5057H95.5514V14.8355C95.5514 11.1174 98.6041 8.09289 102.356 8.09289C106.093 8.09289 109.133 11.1337 109.133 14.8712V27.5057H110.785V14.8355C110.785 10.2099 107.004 6.44666 102.356 6.44666Z" fill="black"/>
<path fill-rule="evenodd" clip-rule="evenodd" d="M131.822 17.2395C131.814 22.2853 127.683 26.3905 122.614 26.3905C117.558 26.3905 113.444 22.2758 113.444 17.2192C113.444 12.1865 117.575 8.09264 122.651 8.09264C127.699 8.09264 131.814 12.1965 131.822 17.2395ZM122.614 6.44641C116.646 6.44641 111.789 11.2975 111.789 17.2594C111.789 23.1983 116.662 28.0299 122.651 28.0299C126.416 28.0299 129.856 26.1077 131.822 22.9598V24.2274C131.822 29.2605 127.692 33.3553 122.614 33.3553C119.067 33.3553 115.797 31.2722 114.283 28.0475L114.222 27.917H112.435L112.561 28.2269C114.23 32.3415 118.176 34.9997 122.614 34.9997C128.603 34.9997 133.474 30.15 133.474 24.189V17.2192C133.474 11.2789 128.603 6.44641 122.614 6.44641Z" fill="black"/>
<path fill-rule="evenodd" clip-rule="evenodd" d="M154.514 17.2597C154.514 22.2946 150.384 26.3903 145.307 26.3903C140.252 26.3903 136.139 22.2761 136.139 17.219C136.139 12.1868 140.268 8.09291 145.344 8.09291C150.4 8.09291 154.514 12.2053 154.514 17.2597ZM154.514 11.5159C152.547 8.36848 149.108 6.44668 145.344 6.44668C139.356 6.44668 134.484 11.2973 134.484 17.2597C134.484 23.1986 139.356 28.0297 145.344 28.0297C151.313 28.0297 156.168 23.18 156.168 17.219V0H154.514V11.5159Z" fill="black"/>
</g>
</svg>
