<svg width="21" height="21" viewBox="0 0 21 21" fill="none" xmlns="http://www.w3.org/2000/svg">
<g clip-path="url(#clip0_23_1942)">
<path d="M20.0585 5.02418L20.0835 5.18751C19.8418 4.33001 19.1893 3.66835 18.3602 3.42751L18.3427 3.42334C16.7835 3.00001 10.5093 3.00001 10.5093 3.00001C10.5093 3.00001 4.25099 2.99168 2.67599 3.42334C1.83099 3.66834 1.17766 4.33001 0.94016 5.17001L0.935993 5.18751C0.353493 8.23001 0.349326 11.8858 0.961826 15.1433L0.935993 14.9783C1.17766 15.8358 1.83016 16.4975 2.65933 16.7383L2.67683 16.7425C4.23433 17.1667 10.5102 17.1667 10.5102 17.1667C10.5102 17.1667 16.7677 17.1667 18.3435 16.7425C19.1893 16.4975 19.8427 15.8358 20.0802 14.9958L20.0843 14.9783C20.3493 13.5633 20.501 11.935 20.501 10.2717C20.501 10.2108 20.501 10.1492 20.5002 10.0875C20.501 10.0308 20.501 9.96335 20.501 9.89585C20.501 8.23168 20.3493 6.60335 20.0585 5.02418ZM8.50766 13.1258V7.04835L13.7293 10.0917L8.50766 13.1258Z" fill="black"/>
</g>
<defs>
<clipPath id="clip0_23_1942">
<rect width="20.0002" height="20.1667" fill="white" transform="translate(0.500748)"/>
</clipPath>
</defs>
</svg>
